<svg xmlns="http://www.w3.org/2000/svg" width="336.6767407237877" height="261.35625" viewBox="0 0 300 232.88473932425768" class="looka-1j8o68f"><defs id="SvgjsDefs1795"></defs><g id="SvgjsG1796" featurekey="1p4tPl-0" transform="matrix(0.26785714285714285,0,0,0.26785714285714285,81.42857142857143,0)" fill="#eaa159"><path xmlns="http://www.w3.org/2000/svg" fill-rule="evenodd" clip-rule="evenodd" d="M452.305,306.484L153.883,486.5c-2.73,2.156-6.137,3.5-9.887,3.5  c-8.844,0-16.004-7.156-16.004-16c0-6.047,3.43-11.25,8.379-13.977l299.355-181.977c1.617-1.039,3.211-2.219,4.648-3.656  c10.156-10.156,10.156-26.625,0-36.777c-1.578-1.578-3.32-2.871-5.172-3.984L109.195,35.473c-4.254-2.191-9.043-3.465-14.137-3.465  c-17.152,0-31.07,13.906-31.07,31.055V408c0,8.844-7.16,16-16.004,16C39.156,424,32,416.844,32,408V62.379  C32,27.938,59.914,0,94.375,0c11.305,0,21.852,3.074,31,8.328l326.797,197.121C468.875,216.086,480,234.723,480,256  C480,277.219,468.938,295.812,452.305,306.484L452.305,306.484z M79.988,480.016c8.844,0,16,7.156,16,16  c0,8.828-7.156,15.984-16,15.984c-8.824,0-16-7.156-16-15.984C63.988,487.172,71.164,480.016,79.988,480.016L79.988,480.016z"></path></g><g id="SvgjsG1797" featurekey="dYASrj-0" transform="matrix(4.028330344478918,0,0,4.028330344478918,-6.767195709265142,132.80570948027741)" fill="#ffffff"><path d="M11.836 10.1367 c1.8555 0 3.1543 1.0938 3.1543 3.1152 l0 6.748 l-1.875 0 l0 -6.25 c0 -1.4258 -0.83984 -2.0508 -1.8066 -2.0508 c-1.1328 0 -2.0117 0.72266 -2.0117 2.4121 l0 5.8887 l-1.9043 0 l0 -6.1816 c0 -1.4648 -0.83008 -2.1191 -1.8359 -2.1191 c-1.1035 0 -2.0117 0.72266 -2.0117 2.4805 l0 5.8203 l-1.8652 0 l0 -9.668 l1.8652 0 l0 1.2305 c0.57617 -0.9082 1.5137 -1.4258 2.6758 -1.4258 c1.2598 0 2.2754 0.53711 2.7637 1.5625 c0.60547 -1.0254 1.6113 -1.5625 2.8516 -1.5625 z M33.41790625 20 l-1.9043 0 l-0.9082 -11.23 l-4.2676 11.23 l-1.1816 0 l-4.2383 -11.191 l-0.92773 11.191 l-1.9141 0 l1.0645 -13.809 l2.627 0 l3.9746 10.439 l3.9941 -10.439 l2.627 0 z M41.875034375 10.1367 c2.4902 0 4.5313 1.9238 4.5313 5.0293 c0 3.125 -2.041 5.0391 -4.5313 5.0391 c-1.4551 0 -2.7246 -0.73242 -3.3301 -1.9043 l0 6.543 l-1.875 0 l0 -14.512 l1.8066 0 l0.048828 1.7676 c0.5957 -1.2109 1.875 -1.9629 3.3496 -1.9629 z M41.484334375 18.6035 c1.6699 0 3.0469 -1.2988 3.0469 -3.4375 c0 -2.1191 -1.377 -3.418 -3.0469 -3.418 c-1.7285 0 -3.0859 1.4551 -3.0859 3.418 c0 1.9824 1.3574 3.4375 3.0859 3.4375 z M50.810553125 12.011700000000001 c0.46875 -1.0254 1.6895 -1.7773 3.0762 -1.7871 l0 1.7383 c-1.9141 0 -3.0176 0.80078 -3.0176 2.9492 l0 5.0879 l-1.875 0 l0 -9.668 l1.8164 0 l0 1.6797 z M59.980490625 20.18555 c-2.8223 0 -4.9512 -1.9238 -4.9512 -5.0293 c0 -3.0957 2.1094 -5.0195 4.9512 -5.0195 s4.9414 1.9238 4.9414 5.0195 c0 3.1055 -2.1094 5.0293 -4.9414 5.0293 z M59.960890625 18.6426 c1.7676 0 3.1055 -1.3672 3.1055 -3.4863 c0 -2.1094 -1.3379 -3.4766 -3.1055 -3.4766 c-1.748 0 -3.0664 1.3672 -3.0664 3.4766 c0 2.1191 1.3184 3.4863 3.0664 3.4863 z M71.40628125 20.18555 c-3.1934 0 -4.6582 -1.7285 -4.6582 -4.9414 l1.9043 -0.097656 c0 2.1387 0.61523 3.3594 2.7539 3.3594 c1.7188 0 2.832 -1.0547 2.832 -2.5781 c0 -1.6406 -1.1719 -2.5586 -2.6367 -2.5586 l-0.66406 0 l0 -1.5527 l0.64453 0 c1.123 0 2.041 -0.91797 2.041 -2.1289 s-0.95703 -2.0117 -2.2461 -2.0117 c-1.7383 0 -2.1777 1.1914 -2.1777 2.7051 l-1.9043 -0.068359 c0 -2.793 1.4844 -4.3066 4.0625 -4.3066 c2.3145 0 4.043 1.5332 4.043 3.5449 c0 1.4453 -0.9082 2.4902 -1.9043 2.9004 c1.4258 0.41016 2.6563 1.5723 2.6563 3.5547 c0 2.5293 -1.9922 4.1797 -4.7461 4.1797 z"></path></g></svg>