<svg xmlns="http://www.w3.org/2000/svg" viewBox="0 0 370 116" height="114.28571428571429" width="370" style="width: 370px; height: 114.286px; position: absolute; top: 50%; left: 50%; z-index: 0; cursor: pointer; overflow: visible; transform: translate(-50%, -50%) scale(0.518919);"><defs id="SvgjsDefs1715"><linearGradient id="SvgjsLinearGradient1722"><stop id="SvgjsStop1723" stop-color="#006838" offset="0"></stop><stop id="SvgjsStop1724" stop-color="#96cf24" offset="1"></stop></linearGradient></defs><g id="SvgjsG1716" featurekey="symbolFeature-0" transform="matrix(0.22321428571428573,0,0,0.22321428571428573,-7.142857142857143,0)" fill="#04a118"><path xmlns="http://www.w3.org/2000/svg" fill-rule="evenodd" clip-rule="evenodd" d="M452.305,306.484L153.883,486.5c-2.73,2.156-6.137,3.5-9.887,3.5  c-8.844,0-16.004-7.156-16.004-16c0-6.047,3.43-11.25,8.379-13.977l299.355-181.977c1.617-1.039,3.211-2.219,4.648-3.656  c10.156-10.156,10.156-26.625,0-36.777c-1.578-1.578-3.32-2.871-5.172-3.984L109.195,35.473c-4.254-2.191-9.043-3.465-14.137-3.465  c-17.152,0-31.07,13.906-31.07,31.055V408c0,8.844-7.16,16-16.004,16C39.156,424,32,416.844,32,408V62.379  C32,27.938,59.914,0,94.375,0c11.305,0,21.852,3.074,31,8.328l326.797,197.121C468.875,216.086,480,234.723,480,256  C480,277.219,468.938,295.812,452.305,306.484L452.305,306.484z M79.988,480.016c8.844,0,16,7.156,16,16  c0,8.828-7.156,15.984-16,15.984c-8.824,0-16-7.156-16-15.984C63.988,487.172,71.164,480.016,79.988,480.016L79.988,480.016z"></path></g><g id="SvgjsG1717" featurekey="nameFeature-0" transform="matrix(1.3480380057199466,0,0,1.3480380057199466,116.65632641542345,9.650733176676571)" fill="url(#SvgjsLinearGradient1722)"><path d="M35.996 40 l-5.8398 0 l-1.8555 -21.27 l-7.1484 21.27 l-3.7891 0 l-7.1484 -21.27 l-1.875 21.27 l-5.8594 0 l2.3633 -28.223 l8.3594 0 l6.0156 17.715 l6.0938 -17.715 l8.3594 0 z M75.43447656250001 40 l-5.8398 0 l-1.8555 -21.27 l-7.1484 21.27 l-3.7891 0 l-7.1484 -21.27 l-1.875 21.27 l-5.8594 0 l2.3633 -28.223 l8.3594 0 l6.0156 17.715 l6.0938 -17.715 l8.3594 0 z M94.267953125 11.777000000000001 c5.5273 0 8.9648 4.1016 8.9648 9.1211 c0 5.1367 -3.4375 8.9844 -8.9648 8.9844 l-5.8789 0 l0 10.117 l-5.8594 0 l0 -28.223 l11.738 0 z M93.290953125 24.98 c2.9297 0 4.2969 -1.6211 4.2969 -4.1602 c0 -2.4414 -1.3672 -4.1406 -4.2969 -4.1406 l-4.9023 0 l0 8.3008 l4.9023 0 z M124.0188671875 40 l-7.3438 -12.422 l-1.6992 0 l0 12.422 l-5.8594 0 l0 -28.223 l10.234 0 c6.3867 0 9.082 3.7695 9.082 8.4375 c0 3.7891 -2.1484 6.25 -5.9766 7.0703 l8.4961 12.715 l-6.9336 0 z M114.9755671875 16.641 l0 6.7383 l3.457 0 c3.125 0 4.3945 -1.3281 4.3945 -3.3594 c0 -2.0117 -1.2695 -3.3789 -4.3945 -3.3789 l-3.457 0 z M148.71059375 40.39063 c-8.3008 0 -14.434 -5.6641 -14.434 -14.512 c0 -8.8672 6.1328 -14.492 14.434 -14.492 c8.2813 0 14.414 5.625 14.414 14.492 c0 8.8477 -6.1328 14.512 -14.414 14.512 z M148.71059375 35.0195 c4.8633 0 8.5938 -3.418 8.5938 -9.1406 c0 -5.7031 -3.7305 -9.1016 -8.5938 -9.1016 s-8.5938 3.3984 -8.5938 9.1016 c0 5.7227 3.7305 9.1406 8.5938 9.1406 z M177.7201953125 40.39063 c-7.1289 0 -10.117 -3.4961 -10.117 -10.469 l5.7617 -0.25391 c0 3.7891 0.56641 5.8203 4.3555 5.8203 c2.9883 0 4.4922 -1.7578 4.4922 -4.1016 c0 -2.7539 -1.6797 -4.1016 -4.1016 -4.1016 l-1.0938 0 l0 -4.375 l1.0156 0 c1.875 0 3.2617 -1.4648 3.2617 -3.5156 c0 -2.0898 -1.5625 -3.1641 -3.6914 -3.1641 c-3.0273 0 -3.5156 2.2656 -3.5156 4.5703 l-5.6836 -0.27344 c0 -5.9961 3.4961 -9.1406 9.1406 -9.1406 c5.2539 0 8.9844 3.3008 8.9844 7.5195 c0 3.0664 -1.9727 5.0781 -3.5547 5.7813 c2.4023 0.68359 4.9609 2.7539 4.9609 6.9336 c0 5.3125 -4.043 8.7695 -10.215 8.7695 z"></path></g><g id="SvgjsG1718" featurekey="sloganFeature-0" transform="matrix(0.8776498920715348,0,0,0.8776498920715348,144.8544864018571,69.00326602711091)" fill="#59a52c"><path d="M12.412 5.888999999999999 l-4.6387 7.3535 l0 6.7578 l-2.9395 0 l0 -6.6895 l-4.668 -7.4219 l3.2422 0 l2.8809 4.8047 l2.8906 -4.8047 l3.2324 0 z M20.644559375 20.19531 c-4.1504 0 -7.2168 -2.832 -7.2168 -7.2559 c0 -4.4336 3.0664 -7.2461 7.2168 -7.2461 c4.1406 0 7.207 2.8125 7.207 7.2461 c0 4.4238 -3.0664 7.2559 -7.207 7.2559 z M20.644559375 17.5098 c2.4316 0 4.2969 -1.709 4.2969 -4.5703 c0 -2.8516 -1.8652 -4.5508 -4.2969 -4.5508 s-4.2969 1.6992 -4.2969 4.5508 c0 2.8613 1.8652 4.5703 4.2969 4.5703 z M35.771503125 20.19531 c-3.0957 0 -5.5176 -1.582 -5.5176 -5.1367 l0 -9.1699 l2.9297 0 l0 8.7695 c0 2.1484 1.1426 2.9492 2.5879 2.9492 c1.4551 0 2.6074 -0.81055 2.6074 -2.9492 l0 -8.7695 l2.9297 0 l0 9.1699 c0 3.5547 -2.4316 5.1367 -5.5371 5.1367 z M52.119096875 20 l-3.6719 -6.2109 l-0.84961 0 l0 6.2109 l-2.9297 0 l0 -14.111 l5.1172 0 c3.1934 0 4.541 1.8848 4.541 4.2188 c0 1.8945 -1.0742 3.125 -2.9883 3.5352 l4.248 6.3574 l-3.4668 0 z M47.597696875 8.32 l0 3.3691 l1.7285 0 c1.5625 0 2.1973 -0.66406 2.1973 -1.6797 c0 -1.0059 -0.63477 -1.6895 -2.1973 -1.6895 l-1.7285 0 z M79.101515625 20 l-2.9199 0 l-0.92773 -10.635 l-3.5742 10.635 l-1.8945 0 l-3.5742 -10.635 l-0.9375 10.635 l-2.9297 0 l1.1816 -14.111 l4.1797 0 l3.0078 8.8574 l3.0469 -8.8574 l4.1797 0 z M82.167996875 20 l0 -14.111 l2.9297 0 l0 14.111 l-2.9297 0 z M87.1972625 20 l5.498 -7.3633 l-5.3418 -6.748 l3.5645 0 l3.5156 4.6289 l3.5156 -4.6289 l3.5645 0 l-5.3418 6.748 l5.498 7.3633 l-3.7305 0 l-3.5059 -4.9902 l-3.5059 4.9902 l-3.7305 0 z M105.380825 23.5938 l-2.0117 0 l1.2207 -6.3867 l2.8906 0 z M124.9809375 20 l-1.0254 -2.9102 l-5.9277 0 l-1.0254 2.9102 l-2.998 0 l5.1953 -14.111 l3.584 0 l5.1953 14.111 l-2.998 0 z M118.8867375 14.6387 l4.209 0 l-2.0996 -5.9863 z M139.736484375 5.888999999999999 l2.9199 0 l0 14.111 l-3.3887 0 l-6.25 -10.088 l0 10.088 l-2.9199 0 l0 -14.111 l3.3496 0 l6.2891 10.029 l0 -10.029 z M156.894421875 5.888999999999999 l-4.6387 7.3535 l0 6.7578 l-2.9395 0 l0 -6.6895 l-4.668 -7.4219 l3.2422 0 l2.8809 4.8047 l2.8906 -4.8047 l3.2324 0 z M161.17188125 20 l-3.6914 -14.111 l3.0469 0 l2.7539 10.684 l3.1543 -10.684 l2.4707 0 l3.1348 10.684 l2.7832 -10.684 l3.0371 0 l-3.6914 14.111 l-3.7695 0 l-2.7344 -8.7207 l-2.7246 8.7207 l-3.7695 0 z M189.014015625 5.888999999999999 l2.9297 0 l0 14.111 l-2.9297 0 l0 -5.8008 l-5.9668 0 l0 5.8008 l-2.9297 0 l0 -14.111 l2.9297 0 l0 5.7617 l5.9668 0 l0 -5.7617 z M203.77953125 8.467 l-5.2344 0 l0 3.2031 l4.6387 0 l0 2.5488 l-4.6387 0 l0 3.1934 l5.2344 0 l0 2.5879 l-8.1836 0 l0 -14.111 l8.1836 0 l0 2.5781 z M214.248003125 20 l-3.6719 -6.2109 l-0.84961 0 l0 6.2109 l-2.9297 0 l0 -14.111 l5.1172 0 c3.1934 0 4.541 1.8848 4.541 4.2188 c0 1.8945 -1.0742 3.125 -2.9883 3.5352 l4.248 6.3574 l-3.4668 0 z M209.726603125 8.32 l0 3.3691 l1.7285 0 c1.5625 0 2.1973 -0.66406 2.1973 -1.6797 c0 -1.0059 -0.63477 -1.6895 -2.1973 -1.6895 l-1.7285 0 z M228.047109375 8.467 l-5.2344 0 l0 3.2031 l4.6387 0 l0 2.5488 l-4.6387 0 l0 3.1934 l5.2344 0 l0 2.5879 l-8.1836 0 l0 -14.111 l8.1836 0 l0 2.5781 z"></path></g></svg>